<svg width="38" height="30" viewBox="0 0 38 30" fill="none" xmlns="http://www.w3.org/2000/svg">
<path d="M11.8561 29.3792C26.0828 29.3792 33.8628 18.0771 33.8628 8.27672C33.8628 7.95573 33.8559 7.63606 33.8409 7.31815C35.351 6.27116 36.6635 4.96462 37.6991 3.47747C36.3133 4.06839 34.8216 4.46566 33.2574 4.64539C34.8542 3.72684 36.0802 2.27439 36.6584 0.542953C35.164 1.39253 33.5089 2.00977 31.7471 2.34314C30.3357 0.901533 28.326 0 26.101 0C21.8299 0 18.366 3.32139 18.366 7.41565C18.366 7.99795 18.434 8.5639 18.5665 9.10685C12.1382 8.79669 6.43776 5.84559 2.62338 1.35783C1.95941 2.45368 1.57624 3.72706 1.57624 5.08577C1.57624 7.65861 2.94177 9.93056 5.01806 11.2592C3.74914 11.2218 2.55721 10.8878 1.51515 10.3318C1.51399 10.363 1.51399 10.3933 1.51399 10.4264C1.51399 14.0184 4.18003 17.0175 7.7196 17.6971C7.06946 17.8666 6.38543 17.9579 5.67996 17.9579C5.18244 17.9579 4.69737 17.9111 4.22614 17.8242C5.2108 20.7711 8.06634 22.9155 11.4517 22.9756C8.80432 24.9652 5.46947 26.1504 1.84506 26.1504C1.22166 26.1504 0.605413 26.1161 0 26.0476C3.42315 28.1516 7.4879 29.3794 11.8563 29.3794" fill="#008EE8"/>
</svg>
