<svg width="30" height="30" viewBox="0 0 30 30" fill="none" xmlns="http://www.w3.org/2000/svg">
<path d="M28.344 5.16439e-08H1.65459C0.740662 0.000445962 -0.000228829 0.722598 5.30167e-08 1.61308V27.6114C0.000457817 28.5017 0.741806 29.2234 1.65596 29.2232H28.344C29.2584 29.2234 29.9998 28.5015 30 27.6108C30 27.6105 30 27.6103 30 27.6101V1.61174C29.9995 0.721483 29.2582 -0.000222904 28.344 5.16439e-08Z" fill="#4267B2"/>
<path d="M20.7134 29.2242V17.9228H24.6245L25.2105 13.4993H20.7134V10.6819C20.7134 9.40413 21.0775 8.53347 22.9585 8.53347H25.3423V4.58773C24.9276 4.53399 23.5046 4.41382 21.8489 4.41382C18.3919 4.41382 16.0259 6.46863 16.0259 10.2438V13.4993H12.1294V17.9228H16.0259V29.2242H20.7134Z" fill="white"/>
</svg>
