<svg width="30" height="39" viewBox="0 0 30 39" fill="none" xmlns="http://www.w3.org/2000/svg">
<path d="M15 0C11.0232 0.00479208 7.21062 1.62055 4.39859 4.49284C1.58656 7.36512 0.0047075 11.2594 1.59585e-05 15.3214C-0.00474707 18.6409 1.05681 21.8703 3.02183 24.5143C3.02183 24.5143 3.43092 25.0645 3.49774 25.1439L15 39L26.5077 25.1369C26.5677 25.0631 26.9782 24.5143 26.9782 24.5143L26.9795 24.5101C28.9436 21.8673 30.0046 18.6394 30 15.3214C29.9953 11.2594 28.4134 7.36512 25.6014 4.49284C22.7894 1.62055 18.9768 0.00479208 15 0ZM15 20.8929C13.9212 20.8929 12.8666 20.5661 11.9696 19.9539C11.0726 19.3417 10.3735 18.4716 9.96066 17.4535C9.54782 16.4355 9.4398 15.3152 9.65027 14.2345C9.86073 13.1537 10.3802 12.161 11.1431 11.3818C11.9059 10.6027 12.8778 10.072 13.9359 9.85705C14.9939 9.64208 16.0907 9.75241 17.0874 10.1741C18.084 10.5958 18.9359 11.3099 19.5353 12.2261C20.1346 13.1423 20.4545 14.2195 20.4545 15.3214C20.4527 16.7985 19.8775 18.2145 18.8549 19.259C17.8324 20.3034 16.4461 20.891 15 20.8929Z" fill="#EB3223"/>
</svg>
