<svg width="32" height="24" viewBox="0 0 32 24" fill="none" xmlns="http://www.w3.org/2000/svg">
<path d="M32 3.27837V21.818C32 23.023 31.024 23.9987 29.8187 23.9987H24.7267V11.6398L16 18.1845L7.27333 11.6398V24H2.18133C1.89476 24 1.611 23.9436 1.34627 23.8339C1.08153 23.7242 0.841 23.5635 0.638427 23.3608C0.435854 23.1582 0.275206 22.9176 0.165662 22.6529C0.0561178 22.3882 -0.000174757 22.1045 4.07535e-07 21.818V3.27837C4.07535e-07 0.581862 3.07867 -0.957664 5.236 0.660505L7.27333 2.18937L16 8.73136L24.7267 2.1867L26.764 0.660505C28.92 -0.956332 32 0.581862 32 3.27837Z" fill="#EB3223"/>
</svg>
