<svg width="32" height="31" viewBox="0 0 32 31" fill="none" xmlns="http://www.w3.org/2000/svg">
<path fill-rule="evenodd" clip-rule="evenodd" d="M3.77082 0.9885C4.12076 0.649982 4.54096 0.387379 5.00358 0.218096C5.4662 0.0488117 5.96066 -0.0232879 6.45422 0.00657465C6.94777 0.0364372 7.42914 0.16758 7.86642 0.391312C8.3037 0.615045 8.68691 0.926257 8.99066 1.30433L12.5805 5.77241C13.2385 6.59201 13.4705 7.65962 13.2105 8.66716L12.1166 12.9105C12.06 13.1303 12.0631 13.3605 12.1254 13.5788C12.1878 13.7971 12.3074 13.996 12.4726 14.1564L17.3864 18.917C17.5521 19.0774 17.7578 19.1934 17.9835 19.2538C18.2092 19.3143 18.4472 19.3171 18.6744 19.2619L23.0522 18.202C23.5654 18.0777 24.1011 18.0681 24.6187 18.1738C25.1364 18.2795 25.6224 18.4979 26.0401 18.8124L30.652 22.2884C32.3099 23.5382 32.4619 25.9117 30.978 27.3475L28.91 29.3509C27.4301 30.7847 25.2182 31.4145 23.1562 30.7111C17.8787 28.9121 13.0871 25.985 9.13666 22.147C5.17536 18.3203 2.15409 13.6787 0.296933 8.56641C-0.427045 6.57069 0.222935 4.42578 1.70289 2.99197L3.77082 0.9885Z" fill="#EB3223"/>
</svg>
