<svg width="59" height="59" viewBox="0 0 59 59" fill="none" xmlns="http://www.w3.org/2000/svg">
<g clip-path="url(#clip0_2_288)">
<g clip-path="url(#clip1_2_288)">
<path d="M55.8164 15.1201H54.8945V9.58887C54.8945 4.42637 43.4633 0.370117 29.082 0.370117C14.7008 0.370117 3.26953 4.42637 3.26953 9.58887V15.1201H2.34766C0.820801 15.1201 -0.417969 16.3577 -0.417969 17.8857V27.1045C-0.417969 28.6313 0.820801 29.8701 2.34766 29.8701H3.26953V48.3076C3.26953 50.3438 4.92084 51.9951 6.95703 51.9951V55.6826C6.95703 57.7188 8.60834 59.3701 10.6445 59.3701H14.332C16.3682 59.3701 18.0195 57.7188 18.0195 55.6826V51.9951H40.1445V55.6826C40.1445 57.7188 41.7958 59.3701 43.832 59.3701H47.5195C49.5557 59.3701 51.207 57.7188 51.207 55.6826V51.9951H51.9445C53.7883 51.9951 54.8945 50.5201 54.8945 49.0451V29.8701H55.8164C57.3433 29.8701 58.582 28.6313 58.582 27.1045V17.8857C58.582 16.3577 57.3433 15.1201 55.8164 15.1201ZM12.4883 46.4639C10.4521 46.4639 8.80078 44.8126 8.80078 42.7764C8.80078 40.7402 10.4521 39.0889 12.4883 39.0889C14.5245 39.0889 16.1758 40.7402 16.1758 42.7764C16.1758 44.8126 14.5245 46.4639 12.4883 46.4639ZM14.332 33.5576C12.2958 33.5576 10.6445 31.9063 10.6445 29.8701V15.1201C10.6445 13.0839 12.2958 11.4326 14.332 11.4326H43.832C45.8682 11.4326 47.5195 13.0839 47.5195 15.1201V29.8701C47.5195 31.9063 45.8682 33.5576 43.832 33.5576H14.332ZM45.6758 46.4639C43.6396 46.4639 41.9883 44.8126 41.9883 42.7764C41.9883 40.7402 43.6396 39.0889 45.6758 39.0889C47.712 39.0889 49.3633 40.7402 49.3633 42.7764C49.3633 44.8126 47.712 46.4639 45.6758 46.4639Z" fill="#EB3223"/>
</g>
</g>
<defs>
<clipPath id="clip0_2_288">
<rect width="59" height="59" fill="white"/>
</clipPath>
<clipPath id="clip1_2_288">
<rect width="59" height="59" fill="white" transform="translate(-0.417969 0.370117)"/>
</clipPath>
</defs>
</svg>
