<svg width="65" height="42" viewBox="0 0 65 42" fill="none" xmlns="http://www.w3.org/2000/svg">
<path d="M54.1546 20.9965C55.5679 21.026 56.973 20.7762 58.2875 20.2619C59.602 19.7476 60.7993 18.9791 61.8094 18.0015C62.8195 17.0238 63.6221 15.8567 64.1699 14.5684C64.7178 13.2802 65 11.8968 65 10.4994C65 9.10199 64.7178 7.71862 64.1699 6.4304C63.6221 5.14217 62.8195 3.97502 61.8094 2.99736C60.7993 2.0197 59.602 1.2512 58.2875 0.736906C56.973 0.222612 55.5679 -0.0271254 54.1546 0.00233337C51.3769 0.060227 48.7328 1.1916 46.7891 3.15388C44.8455 5.11616 43.7569 7.75313 43.7569 10.4994C43.7569 13.2457 44.8455 15.8827 46.7891 17.845C48.7328 19.8072 51.3769 20.9386 54.1546 20.9965ZM25.8233 33.7615C26.4011 33.187 26.8588 32.5056 27.1701 31.7563C27.4815 31.0069 27.6406 30.2043 27.6381 29.3942C27.6357 28.5841 27.4719 27.7825 27.1561 27.0349C26.8403 26.2874 26.3786 25.6087 25.7974 25.0376C25.2162 24.4665 24.5269 24.0141 23.7689 23.7063C23.0108 23.3985 22.1988 23.2413 21.3793 23.2437C20.5598 23.2461 19.7488 23.408 18.9926 23.7202C18.2364 24.0324 17.5498 24.4888 16.9721 25.0633L12.3458 29.6644H6.23957C4.58473 29.6644 2.99767 30.3142 1.82753 31.4709C0.657381 32.6276 0 34.1964 0 35.8322C0 37.468 0.657381 39.0368 1.82753 40.1935C2.99767 41.3502 4.58473 42 6.23957 42H12.7541C14.3375 42.0003 15.9047 41.6856 17.3625 41.0747C18.8203 40.4639 20.1388 39.5693 21.2396 38.4442L25.8186 33.7615H25.8233ZM58.6203 29.5337C60.2899 29.5325 61.8915 30.1869 63.073 31.353C64.2544 32.5191 64.9188 34.1013 64.9201 35.7517C64.9213 37.402 64.2593 38.9853 63.0796 40.1531C61.9 41.321 60.2993 41.9778 58.6298 41.979L51.2254 41.9883C51.1923 41.9883 51.1616 41.9837 51.131 41.979C51.1013 41.9743 51.0713 41.9719 51.0413 41.972C50.2944 41.9911 49.5518 41.857 48.8599 41.5784C48.1681 41.2997 47.5422 40.8824 47.0216 40.3528L45.3198 38.6682C44.2974 39.7163 43.0722 40.5504 41.717 41.1208C40.3618 41.6912 38.9044 41.9862 37.4315 41.9883H30.1546L29.0499 20.1705H40.7525C42.0084 20.1704 43.2518 20.418 44.4097 20.8987C45.5676 21.3795 46.6169 22.0838 47.496 22.9704L54.0011 29.5337H58.6203Z" fill="#EB3223"/>
</svg>
