<svg width="81" height="16" viewBox="0 0 81 16" fill="none" xmlns="http://www.w3.org/2000/svg">
<g clip-path="url(#clip0_25_78)">
<path fill-rule="evenodd" clip-rule="evenodd" d="M7.5438 1.76313C7.94112 0.530942 9.68446 0.530941 10.0818 1.76313L11.1868 5.19015L14.7736 5.19015C16.0628 5.19015 16.6014 6.83779 15.5612 7.59933L12.6507 9.73009L13.7604 13.1713C14.1571 14.4015 12.7467 15.4199 11.7038 14.6564L8.81279 12.5399L5.92181 14.6564C4.87886 15.4199 3.46851 14.4015 3.8652 13.1713L4.97483 9.73009L2.06436 7.59933C1.02415 6.83779 1.56281 5.19015 2.85198 5.19015H6.43874L7.5438 1.76313Z" fill="#EB3223"/>
</g>
<g clip-path="url(#clip1_25_78)">
<path fill-rule="evenodd" clip-rule="evenodd" d="M23.5438 1.76313C23.9411 0.530942 25.6845 0.530941 26.0818 1.76313L27.1868 5.19015L30.7736 5.19015C32.0628 5.19015 32.6014 6.83779 31.5612 7.59933L28.6507 9.73009L29.7604 13.1713C30.1571 14.4015 28.7467 15.4199 27.7038 14.6564L24.8128 12.5399L21.9218 14.6564C20.8789 15.4199 19.4685 14.4015 19.8652 13.1713L20.9748 9.73009L18.0644 7.59933C17.0242 6.83779 17.5628 5.19015 18.852 5.19015H22.4387L23.5438 1.76313Z" fill="#EB3223"/>
</g>
<g clip-path="url(#clip2_25_78)">
<path fill-rule="evenodd" clip-rule="evenodd" d="M39.5438 1.76313C39.9411 0.530942 41.6845 0.530941 42.0818 1.76313L43.1868 5.19015L46.7736 5.19015C48.0628 5.19015 48.6014 6.83779 47.5612 7.59933L44.6507 9.73009L45.7604 13.1713C46.1571 14.4015 44.7467 15.4199 43.7038 14.6564L40.8128 12.5399L37.9218 14.6564C36.8789 15.4199 35.4685 14.4015 35.8652 13.1713L36.9748 9.73009L34.0644 7.59933C33.0242 6.83779 33.5628 5.19015 34.852 5.19015H38.4387L39.5438 1.76313Z" fill="#EB3223"/>
</g>
<g clip-path="url(#clip3_25_78)">
<path fill-rule="evenodd" clip-rule="evenodd" d="M55.5438 1.76313C55.9411 0.530942 57.6845 0.530941 58.0818 1.76313L59.1868 5.19015L62.7736 5.19015C64.0628 5.19015 64.6014 6.83779 63.5612 7.59933L60.6507 9.73009L61.7604 13.1713C62.1571 14.4015 60.7467 15.4199 59.7038 14.6564L56.8128 12.5399L53.9218 14.6564C52.8789 15.4199 51.4685 14.4015 51.8652 13.1713L52.9748 9.73009L50.0644 7.59933C49.0242 6.83779 49.5628 5.19015 50.852 5.19015H54.4387L55.5438 1.76313Z" fill="#EB3223"/>
</g>
<g clip-path="url(#clip4_25_78)">
<path fill-rule="evenodd" clip-rule="evenodd" d="M71.5438 1.76313C71.9411 0.530942 73.6845 0.530941 74.0818 1.76313L75.1868 5.19015L78.7736 5.19015C80.0628 5.19015 80.6014 6.83779 79.5612 7.59933L76.6507 9.73009L77.7604 13.1713C78.1571 14.4015 76.7467 15.4199 75.7038 14.6564L72.8128 12.5399L69.9218 14.6564C68.8789 15.4199 67.4685 14.4015 67.8652 13.1713L68.9748 9.73009L66.0644 7.59933C65.0242 6.83779 65.5628 5.19015 66.852 5.19015H70.4387L71.5438 1.76313ZM73.9178 5.59934L72.8128 2.17232L71.7077 5.59934C71.5301 6.15015 71.0175 6.52349 70.4387 6.52349H66.852L69.7625 8.65425C70.2262 8.99377 70.4202 9.59226 70.2438 10.1393L69.1342 13.5805L72.0252 11.464C72.4941 11.1207 73.1315 11.1207 73.6004 11.464L76.4914 13.5805L75.3818 10.1393C75.2054 9.59226 75.3994 8.99377 75.8631 8.65425L78.7736 6.52349H75.1868C74.6081 6.52349 74.0954 6.15015 73.9178 5.59934Z" fill="#EB3223"/>
</g>
<defs>
<clipPath id="clip0_25_78">
<rect width="16" height="16" fill="white" transform="translate(0.812775)"/>
</clipPath>
<clipPath id="clip1_25_78">
<rect width="16" height="16" fill="white" transform="translate(16.8128)"/>
</clipPath>
<clipPath id="clip2_25_78">
<rect width="16" height="16" fill="white" transform="translate(32.8128)"/>
</clipPath>
<clipPath id="clip3_25_78">
<rect width="16" height="16" fill="white" transform="translate(48.8128)"/>
</clipPath>
<clipPath id="clip4_25_78">
<rect width="16" height="16" fill="white" transform="translate(64.8128)"/>
</clipPath>
</defs>
</svg>
