<svg width="211" height="58" viewBox="0 0 211 58" fill="none" xmlns="http://www.w3.org/2000/svg">
<g clip-path="url(#clip0_2_177)">
<path d="M102.907 10.9379V17.014H106.196C108.704 17.014 109.876 15.5983 109.876 13.9526C109.884 13.5602 109.813 13.1702 109.667 12.8055C109.521 12.4408 109.303 12.1088 109.026 11.829C108.472 11.2325 107.531 10.9379 106.196 10.9379H102.907ZM110.98 17.9662C109.807 19.0442 108.197 19.5904 106.102 19.5904H102.907V26.2307H100.077V8.33276H106.449C108.541 8.33276 110.129 8.88253 111.153 9.9569C111.673 10.4933 112.081 11.1264 112.354 11.8198C112.626 12.5132 112.758 13.2532 112.742 13.9974C112.726 14.7416 112.562 15.4753 112.26 16.1564C111.957 16.8375 111.522 17.4525 110.98 17.9662" fill="#EB3223"/>
<path d="M116.943 18.8643H123.391C123.297 17.1503 121.944 16.1011 120.192 16.1011C119.4 16.0754 118.627 16.3445 118.025 16.8557C117.422 17.367 117.034 18.0834 116.936 18.8643H116.943ZM116.795 20.9196C116.801 21.3576 116.903 21.7889 117.094 22.1835C117.286 22.5782 117.561 22.9267 117.902 23.2049C118.593 23.7907 119.475 24.1073 120.384 24.0961C121.926 24.0961 123.029 23.4565 123.699 22.1988L125.678 23.5032C125.157 24.4224 124.393 25.1828 123.468 25.7021C122.543 26.2214 121.493 26.4799 120.431 26.4496C119.582 26.4719 118.737 26.3243 117.946 26.0157C117.155 25.707 116.435 25.2436 115.828 24.653C115.225 24.0578 114.751 23.3469 114.433 22.5635C114.116 21.7802 113.963 20.9409 113.983 20.0968C113.952 18.4306 114.589 16.8204 115.752 15.6196C116.315 15.0177 116.999 14.5414 117.761 14.2224C118.523 13.9033 119.344 13.7488 120.171 13.7691C122.034 13.7691 123.507 14.3404 124.564 15.5082C125.62 16.676 126.152 18.178 126.152 20.0752C126.154 20.3574 126.138 20.6394 126.105 20.9196H116.795Z" fill="#EB3223"/>
<path d="M135.774 16.7625C135.516 16.7136 135.254 16.6907 134.992 16.6942C132.897 16.6942 131.793 17.9052 131.793 20.0288V26.2307H129.058V14.0137H131.714V15.9576C132.018 15.3275 132.499 14.7981 133.099 14.4334C133.7 14.0687 134.393 13.8843 135.097 13.9023C135.321 13.894 135.545 13.9169 135.763 13.9706L135.774 16.7625Z" fill="#EB3223"/>
<path d="M137.116 23.3561L139.255 22.1667C139.924 23.4675 140.887 24.1322 142.2 24.1322C143.235 24.1322 144.132 23.604 144.132 22.7848C144.132 22.0661 143.282 21.5271 141.599 21.1858C140.242 20.9091 139.204 20.4312 138.538 19.7233C137.966 19.1263 137.653 18.3302 137.666 17.5063C137.656 16.9842 137.771 16.4673 138.003 15.9985C138.234 15.5297 138.576 15.1227 138.998 14.8114C139.885 14.1084 140.993 13.7359 142.128 13.7585C144.335 13.7585 145.876 14.6748 146.73 16.5002L144.61 17.6895C144.398 17.1889 144.039 16.7637 143.579 16.4699C143.119 16.1761 142.58 16.0276 142.034 16.0438C141.183 16.0438 140.308 16.5684 140.308 17.2332C140.308 18.0309 140.999 18.4441 142.587 18.7855C145.37 19.4035 146.843 20.7294 146.843 22.6231C146.854 23.1475 146.744 23.6676 146.52 24.143C146.297 24.6184 145.966 25.0364 145.554 25.3647C144.704 26.0833 143.575 26.4139 142.196 26.4139C139.758 26.4139 138.053 25.3898 137.112 23.3561" fill="#EB3223"/>
<path d="M151.659 20.054C151.641 21.0729 152.013 22.0607 152.701 22.8172C153.036 23.1883 153.449 23.4827 153.91 23.68C154.371 23.8773 154.87 23.9727 155.371 23.9598C155.868 23.9784 156.363 23.8875 156.82 23.6936C157.278 23.4998 157.686 23.2078 158.017 22.8387C158.689 22.0838 159.049 21.1046 159.026 20.0971C159.051 19.0864 158.682 18.1051 157.995 17.359C157.664 16.9894 157.255 16.6972 156.797 16.5033C156.339 16.3095 155.844 16.2188 155.346 16.2379C154.846 16.2211 154.349 16.3127 153.888 16.5063C153.428 16.7 153.015 16.9909 152.679 17.359C152.003 18.0935 151.64 19.0594 151.666 20.054H151.659ZM159.938 15.5768C160.551 16.1499 161.036 16.8447 161.36 17.6161C161.685 18.3875 161.843 19.2181 161.823 20.054C161.843 20.8999 161.686 21.7408 161.361 22.5233C161.037 23.3058 160.552 24.0127 159.938 24.5994C159.338 25.1952 158.623 25.6642 157.836 25.9779C157.048 26.2916 156.205 26.4437 155.357 26.4248C154.507 26.4389 153.662 26.2848 152.872 25.9714C152.083 25.658 151.364 25.1916 150.758 24.5994C150.161 24.0107 149.687 23.3102 149.364 22.5384C149.042 21.7666 148.877 20.939 148.879 20.1034C148.881 19.2677 149.05 18.4408 149.376 17.6706C149.702 16.9004 150.179 16.2021 150.78 15.6163C151.386 15.0235 152.106 14.5565 152.896 14.2425C153.686 13.9285 154.531 13.7738 155.382 13.7873C156.224 13.7709 157.06 13.9214 157.842 14.2299C158.625 14.5384 159.337 14.9987 159.938 15.584" fill="#EB3223"/>
<path d="M172.965 26.2307V19.4036C172.965 17.5782 172.067 16.3673 170.247 16.3673C168.521 16.3673 167.417 17.5998 167.417 19.4503V26.2307H164.678V14.0137H167.345V15.6594C167.764 15.0607 168.325 14.5742 168.979 14.2432C169.634 13.9121 170.36 13.7469 171.094 13.7622C174.108 13.7622 175.697 15.7744 175.697 18.6993V26.2307H172.965Z" fill="#EB3223"/>
<path d="M187.529 26.2307V19.4036C187.529 17.5782 186.635 16.3673 184.815 16.3673C183.089 16.3673 181.985 17.5998 181.985 19.4503V26.2307H179.25V14.0137H181.917V15.6594C182.336 15.0607 182.897 14.5742 183.551 14.2432C184.205 13.9121 184.932 13.7469 185.665 13.7622C188.68 13.7622 190.268 15.7744 190.268 18.6993V26.2307H187.529Z" fill="#EB3223"/>
<path d="M195.96 18.8644H202.401C202.311 17.1505 200.954 16.1012 199.202 16.1012C198.41 16.0755 197.637 16.3446 197.035 16.8559C196.432 17.3671 196.044 18.0835 195.946 18.8644H195.96ZM195.808 20.9198C195.813 21.358 195.914 21.7899 196.106 22.1848C196.297 22.5797 196.574 22.928 196.915 23.2051C197.606 23.7917 198.489 24.1085 199.398 24.0962C200.939 24.0962 202.043 23.4566 202.709 22.199L204.688 23.5033C204.168 24.4231 203.403 25.1839 202.479 25.7033C201.554 26.2227 200.503 26.4808 199.441 26.4498C198.592 26.4724 197.748 26.3249 196.958 26.0163C196.167 25.7076 195.448 25.244 194.842 24.6531C194.24 24.0589 193.766 23.349 193.45 22.5669C193.133 21.7848 192.98 20.9468 193 20.1041C192.971 18.4375 193.609 16.8274 194.773 15.6269C195.335 15.0251 196.019 14.5488 196.78 14.2298C197.541 13.9107 198.362 13.7562 199.188 13.7764C201.055 13.7764 202.528 14.3477 203.584 15.5155C204.641 16.6833 205.173 18.1853 205.173 20.0826C205.173 20.3647 205.157 20.6466 205.126 20.927L195.808 20.9198Z" fill="#EB3223"/>
<path d="M210.803 7.625H208.064V26.22H210.803V7.625Z" fill="#EB3223"/>
<path d="M98.673 45.9469L101.065 44.7144C101.825 46.6332 103.388 47.6825 105.346 47.6825C107.184 47.6825 108.494 46.7231 108.494 45.2391C108.494 43.9383 107.459 43.1837 104.875 42.3824C102.921 41.768 101.517 41.0817 100.645 40.3055C100.185 39.8968 99.823 39.3917 99.5839 38.8268C99.3449 38.262 99.2352 37.6514 99.2629 37.0393C99.2579 36.3448 99.4112 35.6583 99.7114 35.031C100.012 34.4038 100.451 33.8521 100.996 33.4173C102.176 32.4057 103.693 31.8676 105.251 31.9081C108.287 31.9081 110.317 33.4856 111.164 35.7026L108.816 36.9566C108.128 35.2894 106.909 34.4414 105.197 34.4414C103.486 34.4414 102.183 35.4475 102.183 36.8848C102.183 38.2322 103.312 38.9653 105.519 39.6264C107.727 40.2876 109.293 41.0422 110.144 41.8902C110.57 42.3055 110.904 42.8043 111.126 43.3548C111.348 43.9053 111.452 44.4956 111.432 45.0881C111.432 45.7759 111.284 46.4556 110.998 47.082C110.712 47.7085 110.295 48.2672 109.775 48.7209C108.671 49.745 107.177 50.248 105.313 50.248C102.161 50.248 99.7007 48.6958 98.6875 45.9541" fill="#EB3223"/>
<path d="M116.487 42.6805H122.928C122.837 40.9666 121.48 39.9173 119.733 39.9173C118.941 39.8924 118.168 40.1619 117.566 40.6729C116.963 41.184 116.575 41.8999 116.476 42.6805H116.487ZM116.339 44.7359C116.344 45.1739 116.447 45.6054 116.638 46.0001C116.829 46.3948 117.105 46.7433 117.446 47.0212C118.137 47.6078 119.019 47.9246 119.928 47.9123C121.47 47.9123 122.573 47.2727 123.239 46.0151L125.218 47.3194C124.698 48.2384 123.934 48.9986 123.01 49.5179C122.086 50.0372 121.037 50.2959 119.975 50.2659C118.714 50.2618 117.481 49.8912 116.429 49.1999C115.377 48.5085 114.552 47.5266 114.056 46.3752C113.559 45.2238 113.413 43.9532 113.634 42.7201C113.856 41.4871 114.436 40.3454 115.304 39.4359C115.866 38.8336 116.55 38.357 117.312 38.038C118.074 37.7189 118.895 37.5646 119.722 37.5853C121.585 37.5853 123.058 38.1567 124.115 39.3245C125.171 40.4923 125.703 41.9942 125.703 43.8915C125.705 44.1736 125.689 44.4556 125.656 44.7359H116.339Z" fill="#EB3223"/>
<path d="M135.332 40.5787C135.075 40.5297 134.813 40.5068 134.551 40.5104C132.455 40.5104 131.352 41.7213 131.352 43.8449V50.036H128.616V37.837H131.283V39.781C132.043 38.4083 133.171 37.722 134.666 37.722C134.891 37.7145 135.115 37.7387 135.332 37.7939V40.5787Z" fill="#EB3223"/>
<path d="M139.743 37.8372L143.354 46.8598L146.969 37.8372H149.842L144.711 50.0362H141.976L136.776 37.8372H139.743Z" fill="#EB3223"/>
<path d="M154.764 50.0359H152.024V37.8369H154.764V50.0359ZM152.118 32.6303C152.28 32.4565 152.475 32.3178 152.693 32.2229C152.911 32.1281 153.147 32.0791 153.385 32.0791C153.623 32.0791 153.858 32.1281 154.076 32.2229C154.294 32.3178 154.49 32.4565 154.651 32.6303C154.901 32.8788 155.07 33.1951 155.139 33.5392C155.207 33.8834 155.171 34.2399 155.036 34.5639C154.9 34.8878 154.671 35.1646 154.377 35.3593C154.083 35.5541 153.738 35.658 153.385 35.658C153.032 35.658 152.686 35.5541 152.392 35.3593C152.099 35.1646 151.87 34.8878 151.734 34.5639C151.599 34.2399 151.563 33.8834 151.631 33.5392C151.7 33.1951 151.869 32.8788 152.118 32.6303Z" fill="#EB3223"/>
<path d="M159.388 48.4369C158.205 47.2369 157.543 45.6245 157.543 43.9453C157.543 42.2662 158.205 40.6538 159.388 39.4538C159.972 38.8408 160.68 38.357 161.464 38.0338C162.249 37.7106 163.094 37.5553 163.944 37.5781C166.701 37.5781 168.727 39.0657 169.462 41.2324L167.117 42.2853C166.585 40.8013 165.529 40.0467 163.962 40.0467C163.481 40.0418 163.005 40.1349 162.563 40.3204C162.12 40.5058 161.721 40.7796 161.389 41.1247C161.041 41.49 160.77 41.9208 160.593 42.3916C160.415 42.8625 160.334 43.3639 160.354 43.8663C160.315 44.9014 160.687 45.9104 161.389 46.6762C161.72 47.0286 162.123 47.3069 162.571 47.4927C163.019 47.6786 163.502 47.7677 163.987 47.7542C165.529 47.7542 166.586 46.9996 167.161 45.4904L169.556 46.5433C169.135 47.6683 168.364 48.6311 167.355 49.2919C166.346 49.9528 165.151 50.2776 163.944 50.2191C163.101 50.2457 162.262 50.1 161.478 49.7909C160.694 49.4818 159.983 49.0161 159.388 48.4225" fill="#EB3223"/>
<path d="M174.267 42.6806H180.708C180.614 40.9667 179.261 39.9174 177.509 39.9174C176.717 39.8917 175.944 40.1608 175.342 40.6721C174.739 41.1833 174.351 41.8997 174.253 42.6806H174.267ZM174.112 44.736C174.118 45.1738 174.221 45.6051 174.412 45.9997C174.603 46.3943 174.878 46.7429 175.219 47.0213C175.911 47.6075 176.795 47.9242 177.705 47.9124C179.243 47.9124 180.346 47.2728 181.016 46.0152L182.995 47.3195C182.474 48.2388 181.71 48.9991 180.785 49.5184C179.86 50.0377 178.81 50.2962 177.748 50.266C176.899 50.29 176.054 50.1432 175.264 49.8345C174.473 49.5257 173.754 49.0614 173.149 48.4693C172.547 47.876 172.073 47.1668 171.756 46.3852C171.439 45.6037 171.287 44.7661 171.307 43.9239C171.277 42.2577 171.913 40.6475 173.077 39.4467C173.639 38.845 174.324 38.3688 175.086 38.0498C175.847 37.7308 176.669 37.5762 177.495 37.5962C179.359 37.5962 180.831 38.1675 181.891 39.3353C182.952 40.5031 183.476 42.0051 183.476 43.9023C183.478 44.1845 183.462 44.4665 183.429 44.7467L174.112 44.736Z" fill="#EB3223"/>
<path d="M68.9543 20.3235C73.1614 24.5012 75.2529 29.6072 75.2288 35.6415C75.2046 41.6757 73.0613 46.8033 68.7987 51.0241C64.5602 55.2282 59.4074 57.3458 53.3404 57.377C47.2734 57.4081 42.1327 55.3324 37.9183 51.1499C40.2559 48.7747 66.9351 22.2782 68.9543 20.3271" fill="#EB3223"/>
<path d="M47.6014 37.05C43.3895 32.8674 41.298 27.7626 41.327 21.7356C41.3559 15.7085 43.5017 10.5822 47.7643 6.35654C51.9955 2.15006 57.1459 0.0312423 63.2153 0.000100892C69.2847 -0.0310405 74.4266 2.04585 78.641 6.23077C76.3034 8.6059 49.6206 35.0988 47.6014 37.05" fill="#EB3223"/>
<path d="M14.3112 0.0827637C20.2697 0.0827637 25.3838 2.22432 29.6537 6.50746C33.9235 10.7906 36.0584 15.9206 36.0584 21.8973C36.0584 27.8429 33.9235 32.9585 29.6537 37.244C25.3838 41.5296 20.2697 43.6711 14.3112 43.6687C14.275 40.3486 14.275 2.8783 14.3112 0.0827637" fill="#EB3223"/>
<path d="M11.4707 57.4918C9.95928 57.5104 8.46028 57.219 7.06747 56.636C5.67465 56.053 4.41798 55.1908 3.37607 54.1034C1.21436 51.9524 0.000305176 49.0377 0.000305176 45.9988C0.000305176 42.96 1.21436 40.0453 3.37607 37.8943C4.41717 36.8051 5.67344 35.9411 7.06627 35.3562C8.4591 34.7713 9.95852 34.4781 11.4707 34.4951C11.4888 36.2486 11.4888 56.0114 11.4707 57.4918Z" fill="#EB3223"/>
</g>
<defs>
<clipPath id="clip0_2_177">
<rect width="210.803" height="57.4918" fill="white"/>
</clipPath>
</defs>
</svg>
